<svg id="Group_617" data-name="Group 617" xmlns="http://www.w3.org/2000/svg" xmlns:xlink="http://www.w3.org/1999/xlink" width="111.95" height="111.244" viewBox="0 0 111.95 111.244">
  <defs>
    <linearGradient id="linear-gradient" x1="0.887" y1="0.083" x2="0.5" y2="1" gradientUnits="objectBoundingBox">
      <stop offset="0" stop-color="#00b7f7"/>
      <stop offset="1" stop-color="#0068be"/>
    </linearGradient>
  </defs>
  <path id="Path_1145" data-name="Path 1145" d="M113.042,27.152,95.45,44.744h17.592Z" transform="translate(-92.784 -24.485)" fill="url(#linear-gradient)"/>
  <path id="Path_1146" data-name="Path 1146" d="M264.581,86.547l-6.22,4.62,6.22,4.62Z" transform="translate(-221.577 -71.441)" fill="url(#linear-gradient)"/>
  <path id="Path_1147" data-name="Path 1147" d="M210.543,251.706V224.342a3.643,3.643,0,0,0-3.731-3.731H164.519a3.643,3.643,0,0,0-3.731,3.731V276.23a3.643,3.643,0,0,0,3.731,3.731c10.84,0,42.292,0,44.6.178a25.144,25.144,0,0,1,1.422-28.431Zm-36.25,22.034h-3.731v-3.731h3.731Zm0-11.2h-3.731v-3.731h3.731Zm0-11.372h-3.731v-3.731h3.731Zm13.328,22.568h-3.731V270.01h3.731Zm0-11.2h-3.731v-3.731h3.731Zm0-11.372h-3.731v-3.731h3.731Zm13.149,22.568h-3.731V270.01h3.731Zm0-11.2h-3.731v-3.731h3.731Zm0-11.372h-3.731v-3.731h3.731Zm2.488-10.84H168.073V228.961h35.184Z" transform="translate(-144.439 -177.427)" fill="url(#linear-gradient)"/>
  <path id="Path_1148" data-name="Path 1148" d="M152.558,55.822V84.787A24.637,24.637,0,0,1,163.932,79.1V44.448H127.68c-1.243,0-1.422-.888-12.439-8.707a1.923,1.923,0,0,1,0-3.021c7.108-5.153,11.017-8.352,11.728-8.707.711-.178-1.6,0,37.138-.178V16.372a1.972,1.972,0,0,0-1.954-1.954H106.711V36.63a1.972,1.972,0,0,1-1.954,1.954H82.722V115.35a1.972,1.972,0,0,0,1.954,1.954H95.339V55.822a1.972,1.972,0,0,1,1.954-1.954h53.665a1.809,1.809,0,0,1,1.6,1.954Z" transform="translate(-82.722 -14.417)" fill="url(#linear-gradient)"/>
  <path id="Path_1149" data-name="Path 1149" d="M305.88,77.211h51.355v4.62H305.88Z" transform="translate(-259.144 -64.06)" fill="url(#linear-gradient)"/>
  <path id="Path_1150" data-name="Path 1150" d="M305.88,117.09h51.355v4.62H305.88Z" transform="translate(-259.144 -95.587)" fill="url(#linear-gradient)"/>
  <path id="Path_1151" data-name="Path 1151" d="M475.57,400.958c0,1.954,1.422,2.488,3.376,3.2v-6.219C477.169,398.116,475.57,399.181,475.57,400.958Z" transform="translate(-393.296 -317.617)" fill="url(#linear-gradient)"/>
  <path id="Path_1152" data-name="Path 1152" d="M502.73,451.39v6.4c1.954-.178,3.731-1.066,3.731-3.021C506.462,452.633,504.863,452.1,502.73,451.39Z" transform="translate(-414.767 -359.874)" fill="url(#linear-gradient)"/>
  <path id="Path_1153" data-name="Path 1153" d="M413.25,338.55a21.68,21.68,0,1,0,21.68,21.68A21.539,21.539,0,0,0,413.25,338.55Zm1.6,33.762V374.8h-2.31v-2.665a15.022,15.022,0,0,1-8.707-3.91L406.5,365.2a10.766,10.766,0,0,0,6.219,3.021V361.3c-4.62-1.066-7.818-2.665-7.818-7.108,0-4.265,3.376-6.93,7.818-7.108V345.3h2.133v1.777a14.626,14.626,0,0,1,7.463,2.665l-2.31,3.2a13.7,13.7,0,0,0-5.153-1.777v6.752h.178c4.62,1.066,8,2.665,8,7.286-.178,4.442-3.732,6.93-8.174,7.108Z" transform="translate(-326.888 -270.667)" fill="url(#linear-gradient)"/>
  <path id="Path_1154" data-name="Path 1154" d="M575.3,77.211h-6.4V90.183h6.4a3.643,3.643,0,0,0,3.731-3.731V80.942a3.752,3.752,0,0,0-3.731-3.731Z" transform="translate(-467.082 -64.06)" fill="url(#linear-gradient)"/>
</svg>
