<svg xmlns="http://www.w3.org/2000/svg" xmlns:xlink="http://www.w3.org/1999/xlink" width="114.358" height="109.22" viewBox="0 0 114.358 109.22">
  <defs>
    <linearGradient id="linear-gradient" x1="0.887" y1="0.083" x2="0.5" y2="1" gradientUnits="objectBoundingBox">
      <stop offset="0" stop-color="#00b7f7"/>
      <stop offset="1" stop-color="#0068be"/>
    </linearGradient>
  </defs>
  <g id="Group_618" data-name="Group 618" transform="translate(0)">
    <path id="Path_1181" data-name="Path 1181" d="M327.706,54.8c3.665-1.1,5.864-3.482,6.231-6.964.55-4.032-.733-7.147-3.848-8.979-.916-.55-2.016-1.1-3.115-1.649h-.183c-.55-.183-1.1-.55-1.649-.733l-1.1-.55h-.183a11.684,11.684,0,0,1-2.566-1.466c-1.283-.733-1.649-2.382-1.1-4.215a2.843,2.843,0,0,1,3.115-2.016,3.07,3.07,0,0,1,3.3,2.2,11.681,11.681,0,0,1,.367,1.649l.366.916h6.6v-.367a9.022,9.022,0,0,0-1.1-5.314q-1.924-3.3-6.6-4.4h-.367V19.25h-4.032v3.482l-1.283.367c-.916.367-1.833.55-2.749.916a8.761,8.761,0,0,0-4.765,7.147,8.312,8.312,0,0,0,3.482,7.513,26.211,26.211,0,0,0,3.848,2.016c.55.183,1.1.55,1.649.733.367.183.916.367,1.283.55a9.873,9.873,0,0,1,2.382,1.283,3.657,3.657,0,0,1,1.283,4.215,3.332,3.332,0,0,1-3.115,2.2h-1.283a3.918,3.918,0,0,1-3.665-3.482l-.183-1.466h-6.6v.367c-.55,5.131,2.382,8.43,8.8,10.079h.367v3.115h4.215v-3.3h.733A2.068,2.068,0,0,0,327.706,54.8Z" transform="translate(-262.835 -19.25)" fill="url(#linear-gradient)"/>
    <path id="Path_1182" data-name="Path 1182" d="M89.461,319.765,94.775,315v47.1H77V321.781a9.935,9.935,0,0,0,4.581,1.1,12.5,12.5,0,0,0,7.88-3.115Z" transform="translate(-77 -253.061)" fill="url(#linear-gradient)"/>
    <path id="Path_1183" data-name="Path 1183" d="M237.194,273.755a16.286,16.286,0,0,0,4.581,8.979v42.881H224V269.358a20.59,20.59,0,0,0,5.864-.733c2.382,1.649,4.948,3.3,7.33,5.131Z" transform="translate(-193.214 -216.398)" fill="url(#linear-gradient)"/>
    <path id="Path_1184" data-name="Path 1184" d="M385.848,283.079l2.932-2.2v54.427H371.005V297.19a16.553,16.553,0,0,0,14.843-14.11Z" transform="translate(-309.432 -226.087)" fill="url(#linear-gradient)"/>
    <path id="Path_1185" data-name="Path 1185" d="M535.78,215.846v66.888H518.005V218.045l4.765-3.665a8.344,8.344,0,0,0,5.5,4.032,2.324,2.324,0,0,0,1.1.183h.367a8.341,8.341,0,0,0,3.665-.916A11.762,11.762,0,0,0,535.78,215.846Z" transform="translate(-425.645 -173.514)" fill="url(#linear-gradient)"/>
    <path id="Path_1186" data-name="Path 1186" d="M192.876,80.365a2.1,2.1,0,0,0-2.2-.916l-22.908,3.115a1.225,1.225,0,0,0-1.1,1.283,1.426,1.426,0,0,0,.55,1.1,50.842,50.842,0,0,1,4.948,3.482l.183.183,1.283.916.367.367-.733.733-13.377,10.445c-5.131,4.032-10.445,8.246-15.576,12.278a12.25,12.25,0,0,0-4.581-1.466,8.853,8.853,0,0,0-5.681,1.466l-7.33-5.314c-2.2-1.649-4.4-3.3-6.6-4.765a9.509,9.509,0,0,0-9.163-9.529,9.635,9.635,0,0,0-10.079,9.163,6.871,6.871,0,0,0,.183,2.016c-7.33,6.414-13.744,12.095-19.791,17.226a4.162,4.162,0,0,0-1.649,3.3,4.976,4.976,0,0,0,1.1,3.115c1.466,1.649,4.215,1.649,6.231,0l19.058-16.676a7.847,7.847,0,0,0,4.032,1.1,8.3,8.3,0,0,0,6.231-2.016l2.2,1.466c3.665,2.566,7.513,5.314,11.178,8.063v.367a9.632,9.632,0,0,0,19.241.916v-1.466l26.573-20.891c.916-.733,2.016-1.649,3.115-2.382l.916-.733.367,1.1c.183.367.183.733.367,1.1v.183c.183.367.733,2.016,2.2,5.681a.982.982,0,0,0,.733.55h.183a1.306,1.306,0,0,0,1.1-.55c0-.183.183-.183.183-.367l8.613-21.073a2.574,2.574,0,0,0-.367-2.566ZM110.23,108.219h-.183a4.943,4.943,0,0,1-4.581-5.314,4.589,4.589,0,0,1,1.466-3.3l.55-.55a4.164,4.164,0,0,1,3.3-.916,5.089,5.089,0,0,1,4.765,5.314,5.479,5.479,0,0,1-3.3,4.581A3.64,3.64,0,0,1,110.23,108.219Zm25.107,16.493a4.7,4.7,0,0,1-1.1-3.482,5.272,5.272,0,0,1,4.215-4.765h1.1a1.1,1.1,0,0,1,.733.183,5,5,0,0,1-1.283,9.9,1.652,1.652,0,0,1-.916-.183A6.9,6.9,0,0,1,135.337,124.712Z" transform="translate(-79.075 -66.804)" fill="url(#linear-gradient)"/>
  </g>
</svg>
