<svg xmlns="http://www.w3.org/2000/svg" width="22.12" height="25.28" viewBox="0 0 22.12 25.28">
  <path id="Icon_awesome-discord" data-name="Icon awesome-discord" d="M14.675,12.008a1.294,1.294,0,1,1-1.289-1.4A1.347,1.347,0,0,1,14.675,12.008Zm-5.9-1.4a1.408,1.408,0,0,0,0,2.806,1.347,1.347,0,0,0,1.289-1.4A1.339,1.339,0,0,0,8.772,10.605Zm13.348-8V25.28c-3.184-2.814-2.166-1.883-5.865-5.322l.67,2.338H2.591A2.6,2.6,0,0,1,0,19.693V2.6A2.6,2.6,0,0,1,2.591,0H19.529A2.6,2.6,0,0,1,22.12,2.6Zm-3.6,11.983A16.927,16.927,0,0,0,16.7,7.218,6.251,6.251,0,0,0,13.146,5.89l-.177.2A8.412,8.412,0,0,1,16.116,7.7a10.74,10.74,0,0,0-9.442-.367c-.468.215-.746.367-.746.367A8.528,8.528,0,0,1,9.253,6.042L9.126,5.89A6.251,6.251,0,0,0,5.574,7.218a16.927,16.927,0,0,0-1.82,7.369,4.583,4.583,0,0,0,3.855,1.921s.468-.569.847-1.049a3.931,3.931,0,0,1-2.212-1.492c.186.13.493.3.518.316a9.214,9.214,0,0,0,7.887.442A7.233,7.233,0,0,0,16.1,13.98a3.989,3.989,0,0,1-2.288,1.5c.379.48.834,1.024.834,1.024A4.621,4.621,0,0,0,18.518,14.587Z" fill="#fff"/>
</svg>
