<svg xmlns="http://www.w3.org/2000/svg" width="1175.789" height="68.77" viewBox="0 0 1175.789 68.77">
  <g id="Group_618" data-name="Group 618" transform="translate(-462 -1038)">
    <g id="shopify-ar21" transform="translate(462 1041.787)">
      <path id="Path_1187" data-name="Path 1187" d="M56.18,24.008a.6.6,0,0,0-.532-.5c-.212-.034-4.875-.357-4.875-.357L47.218,19.6c-.319-.357-1.029-.251-1.3-.177-.034,0-.71.212-1.813.571-1.074-3.1-2.973-5.949-6.316-5.949h-.285a4.143,4.143,0,0,0-3.126-1.813c-7.787.034-11.5,9.747-12.672,14.711l-5.443,1.67c-1.67.532-1.733.571-1.954,2.162L9.724,66.163,44.12,72.6l18.642-4.019c0-.034-6.545-44.234-6.579-44.571ZM42.2,20.59c-.866.285-1.869.571-2.915.892v-.64a14.119,14.119,0,0,0-.71-4.716C40.318,16.395,41.49,18.351,42.2,20.59Zm-5.725-4.053a14.435,14.435,0,0,1,.778,5.215v.319L31.24,23.94c1.177-4.395,3.346-6.567,5.232-7.384Zm-2.31-2.162a1.842,1.842,0,0,1,1,.319c-2.509,1.169-5.161,4.118-6.3,10.022l-4.756,1.457c1.342-4.481,4.473-11.809,10.056-11.809Z" transform="translate(-9.724 -12.231)" fill="#fff"/>
      <path id="Path_1188" data-name="Path 1188" d="M41.5,20.566c-.212-.034-4.875-.357-4.875-.357l-3.555-3.555a.7.7,0,0,0-.5-.212l-2.6,53.21,18.642-4.019L42.033,21.1a.642.642,0,0,0-.532-.532Z" transform="translate(4.426 -9.289)" fill="#fff"/>
      <path id="Path_1189" data-name="Path 1189" d="M34.454,25.327l-2.314,6.829a10.706,10.706,0,0,0-4.481-1.07c-3.63,0-3.805,2.276-3.805,2.847,0,3.109,8.145,4.3,8.145,11.633,0,5.762-3.664,9.462-8.573,9.462A11.951,11.951,0,0,1,14.5,51.363l1.57-5.232S19.159,48.8,21.8,48.8a2.327,2.327,0,0,0,2.419-2.349c0-4.094-6.688-4.271-6.688-10.957,0-5.623,4.053-11.1,12.2-11.1a10.454,10.454,0,0,1,4.733.934Z" transform="translate(-6.388 -3.735)" fill="#0068be"/>
      <path id="Path_1190" data-name="Path 1190" d="M54.4,37.527c-1.33-.713-2.018-1.33-2.018-2.174,0-1.07.934-1.762,2.451-1.762a8.7,8.7,0,0,1,3.27.715l1.226-3.727s-1.125-.87-4.42-.87c-4.6,0-7.79,2.633-7.79,6.333,0,2.093,1.481,3.7,3.472,4.852,1.609.934,2.174,1.553,2.174,2.528s-.792,1.789-2.3,1.789a10.265,10.265,0,0,1-4.315-1.148l-1.3,3.727a9.933,9.933,0,0,0,5.184,1.3c4.722,0,8.12-2.324,8.12-6.523.025-2.273-1.687-3.856-3.737-5.057Zm18.846-7.84a7.073,7.073,0,0,0-5.568,2.8l-.078-.025L69.619,21.9H64.361L59.253,48.789h5.261L66.275,39.6c.69-3.472,2.485-5.619,4.162-5.619,1.172,0,1.634.792,1.634,1.942a11.99,11.99,0,0,1-.229,2.324L69.851,48.764h5.261l2.069-10.872a19.586,19.586,0,0,0,.382-3.414c-.025-2.963-1.583-4.75-4.315-4.75Zm16.189,0c-6.333,0-10.522,5.721-10.522,12.061,0,4.087,2.528,7.355,7.254,7.355,6.212,0,10.42-5.568,10.42-12.061,0-3.78-2.22-7.355-7.143-7.355Zm-2.582,15.4c-1.789,0-2.553-1.529-2.553-3.414,0-3.014,1.553-7.941,4.42-7.941,1.863,0,2.485,1.609,2.485,3.168-.007,3.236-1.563,8.188-4.349,8.188Zm23.187-15.4a7.173,7.173,0,0,0-5.568,3.105h-.078l.311-2.8h-4.66l-1.07,6.973L95.323,56.226h5.237l1.457-7.79h.1a6.069,6.069,0,0,0,3.092.69c6.18,0,10.214-6.333,10.214-12.734.025-3.525-1.553-6.69-5.388-6.69ZM105.01,45.163a3.278,3.278,0,0,1-2.174-.768l.87-4.93c.622-3.27,2.324-5.466,4.162-5.466,1.609,0,2.093,1.481,2.093,2.888.008,3.426-2,8.278-4.943,8.278Zm17.955-23.035a2.99,2.99,0,0,0-2.145.887,2.912,2.912,0,0,0-.849,2.154,2.436,2.436,0,0,0,2.485,2.633h.078a2.973,2.973,0,0,0,3.09-3.041,2.5,2.5,0,0,0-2.633-2.633Zm-7.349,26.61h5.261L124.451,30.1h-5.28m18.686-.025h-3.674l.18-.87c.311-1.789,1.379-3.4,3.105-3.4a5.725,5.725,0,0,1,1.687.255l1.016-4.116a7.044,7.044,0,0,0-2.861-.459,7.865,7.865,0,0,0-5.159,1.762,10.033,10.033,0,0,0-3.058,5.951l-.17.87h-2.451l-.768,3.958h2.451l-2.8,14.711h5.28l2.8-14.711h3.628l.713-3.958Zm12.669.025-4.777,12.82h-.078l-1.3-12.82h-5.545l3.168,17.109a1.206,1.206,0,0,1-.1.87,9.065,9.065,0,0,1-2.861,3.168,11.944,11.944,0,0,1-2.963,1.481l1.458,4.468a12.061,12.061,0,0,0,5.149-2.869c2.4-2.249,4.62-5.721,6.9-10.447l6.435-13.79h-5.482Z" transform="translate(14.821 -5.763)" fill="#fff"/>
    </g>
    <g id="stripe-seeklogo.com" transform="translate(1211.794 1041.787)">
      <path id="Path_1191" data-name="Path 1191" d="M10.2,23.657c0-1.572,1.29-2.176,3.426-2.176a22.478,22.478,0,0,1,9.995,2.579V14.589a26.577,26.577,0,0,0-9.995-1.854C5.441,12.735,0,17.007,0,24.14c0,11.123,15.314,9.35,15.314,14.146,0,1.854-1.612,2.458-3.869,2.458a25.086,25.086,0,0,1-11-3.224v9.592a27.936,27.936,0,0,0,11,2.3c8.383,0,14.146-4.151,14.146-11.365C25.551,26.034,10.2,28.17,10.2,23.657ZM37.439,4.675l-9.833,2.1-.04,32.281A10.126,10.126,0,0,0,38,49.409a15.565,15.565,0,0,0,7.052-1.33V39.9c-1.29.524-7.657,2.378-7.657-3.587V22h7.657V13.42H37.4ZM57.59,16.4l-.645-2.982h-8.7V48.683H58.315v-23.9c2.378-3.1,6.408-2.539,7.657-2.1V13.42C64.683,12.937,59.968,12.05,57.59,16.4ZM68.43,13.42H78.546V48.683H68.43Zm0-3.063L78.546,8.181V0L68.43,2.136Zm31.152,2.378a11.384,11.384,0,0,0-7.9,3.143l-.524-2.5H82.294V60.371l10.075-2.136.041-11.405a11.348,11.348,0,0,0,7.133,2.539c7.214,0,13.783-5.8,13.783-18.579C113.285,19.1,106.636,12.735,99.583,12.735ZM97.165,40.5a6.024,6.024,0,0,1-4.755-1.894l-.041-14.952a6,6,0,0,1,4.8-1.975c3.667,0,6.206,4.111,6.206,9.39C103.371,36.472,100.873,40.5,97.165,40.5Zm47.917-9.309c0-10.317-5-18.458-14.548-18.458-9.592,0-15.395,8.141-15.395,18.377,0,12.13,6.851,18.256,16.684,18.256a22.472,22.472,0,0,0,11.163-2.619v-8.06a21.4,21.4,0,0,1-9.874,2.217c-3.909,0-7.375-1.37-7.818-6.126H145C145,34.256,145.082,32.16,145.082,31.193Zm-19.909-3.829c0-4.554,2.781-6.448,5.32-6.448,2.458,0,5.078,1.894,5.078,6.448Z" transform="translate(0)" fill="#fff"/>
    </g>
    <g id="xero-seeklogo.com" transform="translate(1569.019 1038)">
      <path id="Path_1192" data-name="Path 1192" d="M34.386,68.77A34.385,34.385,0,1,0,0,34.385,34.385,34.385,0,0,0,34.386,68.77" transform="translate(0)" fill="#fff"/>
      <path id="Path_1193" data-name="Path 1193" d="M37.437,106.981l5.856-5.884A1.049,1.049,0,1,0,41.8,99.623l-5.853,5.858-5.876-5.868a1.051,1.051,0,1,0-1.476,1.5l5.856,5.864L28.6,112.841a1.052,1.052,0,0,0,.732,1.8,1.039,1.039,0,0,0,.741-.306l5.868-5.872,5.845,5.848a1.049,1.049,0,1,0,1.5-1.464l-5.853-5.877Zm34.814,0a1.907,1.907,0,1,0,1.909-1.91,1.911,1.911,0,0,0-1.909,1.91Zm-3.614,0a5.522,5.522,0,1,1,5.523,5.532,5.534,5.534,0,0,1-5.523-5.532Zm-2.173,0a7.7,7.7,0,1,0,7.7-7.707,7.713,7.713,0,0,0-7.7,7.707ZM65.918,99.4H65.6a4.358,4.358,0,0,0-2.687.909,1.064,1.064,0,0,0-1.03-.825,1.039,1.039,0,0,0-1.039,1.045l0,12.982a1.048,1.048,0,0,0,2.1,0v-7.984c0-2.659.244-3.735,2.518-4.019a3.626,3.626,0,0,1,.443-.021,1.036,1.036,0,0,0,1.064-1.032,1.054,1.054,0,0,0-1.055-1.051Zm-20.151,6.309c0-.031,0-.061,0-.089a5.557,5.557,0,0,1,10.8.084h-10.8Zm12.949-.2a7.658,7.658,0,0,0-11.981-4.808,7.711,7.711,0,0,0,3.517,13.944,7.252,7.252,0,0,0,2.766-.183,7.592,7.592,0,0,0,2.3-.984,8.311,8.311,0,0,0,1.971-1.868.4.4,0,0,1,.034-.041,1.149,1.149,0,0,0-.118-1.614,1.05,1.05,0,0,0-1.55.239c-.11.159-.234.321-.367.481a6.065,6.065,0,0,1-1.519,1.226,5.542,5.542,0,0,1-2.583.653,5.546,5.546,0,0,1-5.5-4.579l-.015-.161H56.628a1.942,1.942,0,0,0,2.085-2.308Z" transform="translate(-20.683 -72.605)" fill="#0088d5"/>
    </g>
    <path id="gusto-logo-vector" d="M5.008,169.228a17.234,17.234,0,0,0,0,34.468,17.234,17.234,0,0,0,0-34.468Zm0,26.3a9.064,9.064,0,1,1,9.038-9.064,9.093,9.093,0,0,1-9.038,9.064Zm-50.553-12.562-2.987-1.506a8.839,8.839,0,0,1-2.451-1.532,1.807,1.807,0,0,1-.485-1.226,1.75,1.75,0,0,1,.766-1.455,3.541,3.541,0,0,1,2.17-.587c1.685,0,3.549,1.021,5.617,3.064l5.055-5.081a13.647,13.647,0,0,0-4.749-4.034,13.431,13.431,0,0,0-5.974-1.4,10.828,10.828,0,0,0-7.634,2.757A8.728,8.728,0,0,0-59.2,178.6q0,6.013,7.915,10.034l2.757,1.379c2.374,1.2,3.549,2.426,3.549,3.7a2.331,2.331,0,0,1-.97,1.813,4.154,4.154,0,0,1-2.6.766,7.433,7.433,0,0,1-3.421-1.047,11.589,11.589,0,0,1-3.37-2.732l-5.03,5.515a13.611,13.611,0,0,0,11.387,5.617,12.086,12.086,0,0,0,8.553-2.936,9.468,9.468,0,0,0,3.191-7.277,9.506,9.506,0,0,0-1.762-5.719,19.151,19.151,0,0,0-6.536-4.749Zm-50.962,16.979V169.891h-8.145v2.017a17.029,17.029,0,0,0-9.191-2.706A17.211,17.211,0,0,0-131,186.436a17.227,17.227,0,0,0,17.157,17.234,16.98,16.98,0,0,0,9.115-2.63v.664a9.06,9.06,0,0,1-9.038,9.064,9.032,9.032,0,0,1-4.774-1.379l-4.034,7.1a17.086,17.086,0,0,0,8.834,2.477A17.32,17.32,0,0,0-96.455,201.73c-.051-.357-.026-1.43-.051-1.787Zm-17.362-4.417a9.06,9.06,0,0,1-9.038-9.064,9.06,9.06,0,0,1,9.038-9.064,9.06,9.06,0,0,1,9.038,9.064,9.06,9.06,0,0,1-9.038,9.064Zm49.813-25.634h-8.2v16.391c0,2.323,0,6.357-1.711,8.068a4.52,4.52,0,0,1-3.6,1.557,4.52,4.52,0,0,1-3.6-1.557c-1.711-1.711-1.711-5.745-1.685-8.068V169.891h-8.17v16.34c-.026,3.37-.051,9.626,4.034,13.787a12.266,12.266,0,0,0,9.421,3.677c4.162,0,7.021-1.225,9.421-3.677,4.111-4.162,4.06-10.417,4.034-13.787Zm46.391,24.179a5.665,5.665,0,0,1-4.034,1.353c-1.481-.2-2.681-1.277-2.86-4.9V176.913h9.626v-7.047h-9.626V160.7h-8.17v1.813h0v26.936c0,4.289,1.072,14.247,11.03,14.247a14.2,14.2,0,0,0,9.345-3.881l.179-.128-4.9-6.051c-.026,0-.357.281-.587.434Zm0,0" transform="translate(976.733 882.349)" fill="#fff"/>
  </g>
</svg>
