<svg xmlns="http://www.w3.org/2000/svg" xmlns:xlink="http://www.w3.org/1999/xlink" width="85.176" height="117.512" viewBox="0 0 85.176 117.512">
  <defs>
    <linearGradient id="linear-gradient" x1="0.887" y1="0.083" x2="0.5" y2="1" gradientUnits="objectBoundingBox">
      <stop offset="0" stop-color="#00b7f7"/>
      <stop offset="1" stop-color="#0068be"/>
    </linearGradient>
  </defs>
  <g id="noun-accountant-1057844" transform="translate(0)">
    <path id="Path_1106" data-name="Path 1106" d="M175.644,20.028c2.635-4.238,3.474-6.68,3.474-11.068A9.062,9.062,0,0,0,161,8.96c0,4.388.828,6.83,3.474,11.068,3.3,4.238,7.863,4.238,11.175,0Zm-8.239,18.747,2.635,3.893,2.635-3.893L170.912,25.4h-1.635ZM212.462,2.691a19.328,19.328,0,1,1-19.285,19.372A19.331,19.331,0,0,1,212.462,2.691Zm-5.83,13.455a6.38,6.38,0,0,1,1.043-3.851,4.975,4.975,0,0,1,3.162-1.914V8.628h3.281V10.37a4.949,4.949,0,0,1,3.226,1.872,6.368,6.368,0,0,1,1.086,3.883v.742h-3.786V15.9a2.536,2.536,0,0,0-.537-1.807,2.342,2.342,0,0,0-2.947.011,2.456,2.456,0,0,0-.527,1.8,3.587,3.587,0,0,0,.591,2.087,7.923,7.923,0,0,0,1.452,1.635c.591.506,1.216,1,1.882,1.473a15.006,15.006,0,0,1,1.882,1.635,8.391,8.391,0,0,1,1.463,2.1,6.532,6.532,0,0,1,.581,2.883,6.342,6.342,0,0,1-1.086,3.9,4.972,4.972,0,0,1-3.237,1.893l.011,1.71-3.281.011V33.506a4.932,4.932,0,0,1-3.27-1.872,6.48,6.48,0,0,1-1.076-3.9l-.011-1.613,3.786-.011.011,1.85a2.318,2.318,0,0,0,.57,1.785,2.533,2.533,0,0,0,3.023-.011,2.305,2.305,0,0,0,.56-1.785,3.61,3.61,0,0,0-.591-2.087,8.157,8.157,0,0,0-1.452-1.624c-.591-.506-1.216-1-1.882-1.484a13.409,13.409,0,0,1-1.882-1.624,8.39,8.39,0,0,1-1.463-2.1,6.565,6.565,0,0,1-.581-2.883Zm5.84-10.584a16.456,16.456,0,1,1-16.424,16.488A16.456,16.456,0,0,1,212.473,5.562ZM151.112,33.151l-4.453,36.074a3.038,3.038,0,0,0,5.884.56l5.507-27.578-1.613,25.781H183.82l-1.377-26.3,5.668,11.358c1.129,2.259,2.883,3.452,5.356,2.947l15.789-3.27c4.582-.947,3.9-7.765-.409-6.991l-12.606,1.441a1.781,1.781,0,0,1-1.925-1.118l-5.808-13.026c-.43-4.044-8.723-7.777-12.251-9.3L173.074,28.7l1.3,9.852a1.615,1.615,0,0,1-.28,1.172l-2.635,3.9a1.7,1.7,0,0,1-2.828,0L166,39.72a1.6,1.6,0,0,1-.28-1.183l1.269-9.078L164.061,24.8c-3.55,1.431-12.433,3.7-12.95,8.346Zm5.324,37.538h27.536l-2.194,46.584h-7.261L170.2,81.6l-4.313,35.677h-7.261Z" transform="translate(-146.657 0.013)" fill-rule="evenodd" fill="url(#linear-gradient)"/>
    <g id="Group_520" data-name="Group 520" transform="translate(0.003 117.406)">
      <path id="Path_1107" data-name="Path 1107" d="M.048-.152a.01.01,0,0,1-.007,0H.035a.032.032,0,0,1-.016,0,.032.032,0,0,1,0-.016.018.018,0,0,1,0-.013A.023.023,0,0,1,.035-.187H.042l.007,0v.007l-.007,0H.035a.01.01,0,0,0-.007,0,.013.013,0,0,0,0,.01s0,.008,0,.01a.007.007,0,0,0,.007,0H.042a.01.01,0,0,1,.007,0Z" transform="translate(-0.016 0.188)" fill="url(#linear-gradient)"/>
    </g>
    <g id="Group_521" data-name="Group 521" transform="translate(0.043 117.416)">
      <path id="Path_1108" data-name="Path 1108" d="M.039-.131a0,0,0,0,0,0,0,.014.014,0,0,0-.01,0v.02H.016V-.141h.01v.007l0,0a.01.01,0,0,1,.007,0h0Z" transform="translate(-0.016 0.141)" fill="url(#linear-gradient)"/>
    </g>
    <g id="Group_522" data-name="Group 522" transform="translate(0.069 117.416)">
      <path id="Path_1109" data-name="Path 1109" d="M.045-.128v0H.025v.007H.039a.01.01,0,0,0,.007,0v.007a.01.01,0,0,1-.007,0H.032c-.007,0-.011,0-.013,0s0,0,0-.01a.018.018,0,0,1,0-.013.021.021,0,0,1,.013,0,.018.018,0,0,1,.01,0A.018.018,0,0,1,.045-.128Zm-.01,0a0,0,0,0,0,0,0v0a.01.01,0,0,0-.007,0v0Z" transform="translate(-0.016 0.141)" fill="url(#linear-gradient)"/>
    </g>
    <g id="Group_523" data-name="Group 523" transform="translate(0.106 117.416)">
      <path id="Path_1110" data-name="Path 1110" d="M.029-.124l0,0v0H.032a.01.01,0,0,0,0-.007Zm.016,0v.016H.035v0a.01.01,0,0,0-.007,0H.019s0,0,0-.01a.01.01,0,0,1,0-.007.014.014,0,0,1,.01,0H.035a0,0,0,0,0,0,0H.019V-.141h.01a.023.023,0,0,1,.013,0A.018.018,0,0,1,.045-.128Z" transform="translate(-0.016 0.141)" fill="url(#linear-gradient)"/>
    </g>
    <g id="Group_524" data-name="Group 524" transform="translate(0.139 117.406)">
      <path id="Path_1111" data-name="Path 1111" d="M.016-.187v.01H.023v.007H.016v.016H.023v.007H.016s-.008,0-.01,0v-.02H0V-.178H.007v-.01Z" transform="translate(0 0.188)" fill="url(#linear-gradient)"/>
    </g>
    <g id="Group_525" data-name="Group 525" transform="translate(0.168 117.416)">
      <path id="Path_1112" data-name="Path 1112" d="M.045-.128v0H.025v.007H.039a.01.01,0,0,0,.007,0v.007a.01.01,0,0,1-.007,0H.032c-.007,0-.011,0-.013,0s0,0,0-.01a.018.018,0,0,1,0-.013.021.021,0,0,1,.013,0,.018.018,0,0,1,.01,0A.018.018,0,0,1,.045-.128Zm-.01,0a0,0,0,0,0,0,0v0a.01.01,0,0,0-.007,0v0Z" transform="translate(-0.016 0.141)" fill="url(#linear-gradient)"/>
    </g>
    <g id="Group_526" data-name="Group 526" transform="translate(0.204 117.403)">
      <path id="Path_1113" data-name="Path 1113" d="M.035-.187V-.2h.01v.043H.035v0l0,0h0s-.008,0-.01,0,0,0,0-.01a.018.018,0,0,1,0-.013.014.014,0,0,1,.01,0l0,0h0Zm0,.02a.01.01,0,0,0,0-.007s0-.007,0-.007v0a.01.01,0,0,0-.007,0v.013Z" transform="translate(-0.016 0.203)" fill="url(#linear-gradient)"/>
    </g>
    <g id="Group_527" data-name="Group 527" transform="translate(0.261 117.403)">
      <path id="Path_1114" data-name="Path 1114" d="M.032-.167h0a.01.01,0,0,0,0-.007s0-.007,0-.007a0,0,0,0,0,0,0,.01.01,0,0,0-.007,0v.013ZM.025-.187h0a.01.01,0,0,1,.007,0,.018.018,0,0,1,.01,0,.023.023,0,0,1,0,.013.014.014,0,0,1,0,.01.013.013,0,0,1-.01,0H.029a0,0,0,0,0,0,0v0H.016V-.2h.01Z" transform="translate(-0.016 0.203)" fill="url(#linear-gradient)"/>
    </g>
    <g id="Group_528" data-name="Group 528" transform="translate(0.296 117.416)">
      <path id="Path_1115" data-name="Path 1115" d="M0-.141H.01l.007.02.007-.02H.036L.023-.108.016-.1s0,0-.007,0h0V-.1h0v0h0v0Z" transform="translate(0 0.141)" fill="url(#linear-gradient)"/>
    </g>
    <g id="Group_529" data-name="Group 529" transform="translate(0.354 117.416)">
      <path id="Path_1116" data-name="Path 1116" d="M.025-.114V-.1H.016V-.141h.01v0h0a.01.01,0,0,1,.007,0,.018.018,0,0,1,.01,0,.023.023,0,0,1,0,.013.014.014,0,0,1,0,.01.013.013,0,0,1-.01,0H.029A0,0,0,0,0,.025-.114Zm.007-.02a.01.01,0,0,0-.007,0v.013h.01a.01.01,0,0,0,0-.007s0-.007,0-.007A0,0,0,0,0,.032-.134Z" transform="translate(-0.016 0.141)" fill="url(#linear-gradient)"/>
    </g>
    <g id="Group_530" data-name="Group 530" transform="translate(0.392 117.416)">
      <path id="Path_1117" data-name="Path 1117" d="M.032-.134a.01.01,0,0,0-.007,0v.013h.01a.01.01,0,0,0,0-.007s0-.007,0-.007A0,0,0,0,0,.032-.134Zm0-.007a.018.018,0,0,1,.01,0,.014.014,0,0,1,.007.013.01.01,0,0,1-.007.01.013.013,0,0,1-.01,0c-.007,0-.011,0-.013,0s0,0,0-.01a.018.018,0,0,1,0-.013A.021.021,0,0,1,.032-.141Z" transform="translate(-0.016 0.141)" fill="url(#linear-gradient)"/>
    </g>
    <g id="Group_531" data-name="Group 531" transform="translate(0.429 117.416)">
      <path id="Path_1118" data-name="Path 1118" d="M.025-.114V-.1H.016V-.141h.01v0h0a.01.01,0,0,1,.007,0,.018.018,0,0,1,.01,0,.023.023,0,0,1,0,.013.014.014,0,0,1,0,.01.013.013,0,0,1-.01,0H.029A0,0,0,0,0,.025-.114Zm.007-.02a.01.01,0,0,0-.007,0v.013h.01a.01.01,0,0,0,0-.007s0-.007,0-.007A0,0,0,0,0,.032-.134Z" transform="translate(-0.016 0.141)" fill="url(#linear-gradient)"/>
    </g>
    <g id="Group_532" data-name="Group 532" transform="translate(0.467 117.416)">
      <path id="Path_1119" data-name="Path 1119" d="M.042-.141v.01l-.007,0h0a.01.01,0,0,0-.007,0v.013h.01a.01.01,0,0,0,.007,0v.01H.032c-.007,0-.011,0-.013,0s0,0,0-.01a.018.018,0,0,1,0-.013.021.021,0,0,1,.013,0h.01Z" transform="translate(-0.016 0.141)" fill="url(#linear-gradient)"/>
    </g>
    <g id="Group_533" data-name="Group 533" transform="translate(0.499 117.416)">
      <path id="Path_1120" data-name="Path 1120" d="M.032-.134a.01.01,0,0,0-.007,0v.013h.01a.01.01,0,0,0,0-.007s0-.007,0-.007A0,0,0,0,0,.032-.134Zm0-.007a.018.018,0,0,1,.01,0,.014.014,0,0,1,.007.013.01.01,0,0,1-.007.01.013.013,0,0,1-.01,0c-.007,0-.011,0-.013,0s0,0,0-.01a.018.018,0,0,1,0-.013A.021.021,0,0,1,.032-.141Z" transform="translate(-0.016 0.141)" fill="url(#linear-gradient)"/>
    </g>
    <g id="Group_534" data-name="Group 534" transform="translate(0.536 117.416)">
      <path id="Path_1121" data-name="Path 1121" d="M.039-.131a0,0,0,0,0,0,0,.014.014,0,0,0-.01,0v.02H.016V-.141h.01v.007l0,0a.01.01,0,0,1,.007,0h0Z" transform="translate(-0.016 0.141)" fill="url(#linear-gradient)"/>
    </g>
    <g id="Group_535" data-name="Group 535" transform="translate(0.563 117.416)">
      <path id="Path_1122" data-name="Path 1122" d="M.048-.128v.016H.035V-.134h0a.01.01,0,0,0-.007,0v.02H.016V-.141h.01v0h0a.01.01,0,0,1,.007,0,.018.018,0,0,1,.01,0,.018.018,0,0,1,0,.01Z" transform="translate(-0.016 0.141)" fill="url(#linear-gradient)"/>
    </g>
    <g id="Group_536" data-name="Group 536" transform="translate(0.602 117.416)">
      <path id="Path_1123" data-name="Path 1123" d="M.029-.124l0,0v0H.032a.01.01,0,0,0,0-.007Zm.016,0v.016H.035v0a.01.01,0,0,0-.007,0H.019s0,0,0-.01a.01.01,0,0,1,0-.007.014.014,0,0,1,.01,0H.035a0,0,0,0,0,0,0H.019V-.141h.01a.023.023,0,0,1,.013,0A.018.018,0,0,1,.045-.128Z" transform="translate(-0.016 0.141)" fill="url(#linear-gradient)"/>
    </g>
    <g id="Group_537" data-name="Group 537" transform="translate(0.638 117.416)">
      <path id="Path_1124" data-name="Path 1124" d="M.039-.131a0,0,0,0,0,0,0,.014.014,0,0,0-.01,0v.02H.016V-.141h.01v.007l0,0a.01.01,0,0,1,.007,0h0Z" transform="translate(-0.016 0.141)" fill="url(#linear-gradient)"/>
    </g>
    <g id="Group_538" data-name="Group 538" transform="translate(0.661 117.406)">
      <path id="Path_1125" data-name="Path 1125" d="M.016-.187v.01H.023v.007H.016v.016H.023v.007H.016s-.008,0-.01,0v-.02H0V-.178H.007v-.01Z" transform="translate(0 0.188)" fill="url(#linear-gradient)"/>
    </g>
    <g id="Group_539" data-name="Group 539" transform="translate(0.69 117.416)">
      <path id="Path_1126" data-name="Path 1126" d="M.039-.141v.01l-.007,0H.022v0H.029l.01.007a0,0,0,0,1,0,0,.014.014,0,0,1,0,.01H.016v-.01a.007.007,0,0,0,.007,0H.029a0,0,0,0,0,0,0l0,0H.016V-.131s0-.007,0-.007a.014.014,0,0,1,.01,0h.01Z" transform="translate(-0.016 0.141)" fill="url(#linear-gradient)"/>
    </g>
    <g id="Group_540" data-name="Group 540" transform="translate(0 117.456)">
      <path id="Path_1127" data-name="Path 1127" d="M.023-.2V-.2h0a0,0,0,0,0,0,0v0H.023v.007H.016v.023H.007V-.183H0V-.19H.007V-.2a.014.014,0,0,1,.01,0Z" transform="translate(0 0.203)" fill="url(#linear-gradient)"/>
    </g>
    <g id="Group_541" data-name="Group 541" transform="translate(0.027 117.47)">
      <path id="Path_1128" data-name="Path 1128" d="M.039-.131a0,0,0,0,0,0,0,.014.014,0,0,0-.01,0v.02H.016V-.141h.01v.007l0,0a.01.01,0,0,1,.007,0h0Z" transform="translate(-0.016 0.141)" fill="url(#linear-gradient)"/>
    </g>
    <g id="Group_542" data-name="Group 542" transform="translate(0.054 117.47)">
      <path id="Path_1129" data-name="Path 1129" d="M.032-.134a.01.01,0,0,0-.007,0v.013h.01a.01.01,0,0,0,0-.007s0-.007,0-.007A0,0,0,0,0,.032-.134Zm0-.007a.018.018,0,0,1,.01,0,.014.014,0,0,1,.007.013.01.01,0,0,1-.007.01.013.013,0,0,1-.01,0c-.007,0-.011,0-.013,0s0,0,0-.01a.018.018,0,0,1,0-.013A.021.021,0,0,1,.032-.141Z" transform="translate(-0.016 0.141)" fill="url(#linear-gradient)"/>
    </g>
    <g id="Group_543" data-name="Group 543" transform="translate(0.09 117.47)">
      <path id="Path_1130" data-name="Path 1130" d="M.045-.134a0,0,0,0,1,0,0,.01.01,0,0,1,.007,0l.007,0a.018.018,0,0,1,0,.01v.016H.055V-.128a0,0,0,0,0,0,0v0a.01.01,0,0,0-.007,0v.02H.035v-.02a0,0,0,0,0,0,0,.01.01,0,0,0-.007,0v.02H.016V-.141h.01v0h0a.01.01,0,0,1,.007,0,0,0,0,0,1,0,0l.007,0Z" transform="translate(-0.016 0.141)" fill="url(#linear-gradient)"/>
    </g>
    <g id="Group_544" data-name="Group 544" transform="translate(0.161 117.46)">
      <path id="Path_1131" data-name="Path 1131" d="M.016-.187v.01H.023v.007H.016v.016H.023v.007H.016s-.008,0-.01,0v-.02H0V-.178H.007v-.01Z" transform="translate(0 0.188)" fill="url(#linear-gradient)"/>
    </g>
    <g id="Group_545" data-name="Group 545" transform="translate(0.191 117.456)">
      <path id="Path_1132" data-name="Path 1132" d="M.048-.177v.016H.035V-.183h0a.01.01,0,0,0-.007,0v.02H.016V-.2h.01v.016h0a.01.01,0,0,1,.007,0,.018.018,0,0,1,.01,0,.018.018,0,0,1,0,.01Z" transform="translate(-0.016 0.203)" fill="url(#linear-gradient)"/>
    </g>
    <g id="Group_546" data-name="Group 546" transform="translate(0.229 117.47)">
      <path id="Path_1133" data-name="Path 1133" d="M.045-.128v0H.025v.007H.039a.01.01,0,0,0,.007,0v.007a.01.01,0,0,1-.007,0H.032c-.007,0-.011,0-.013,0s0,0,0-.01a.018.018,0,0,1,0-.013.021.021,0,0,1,.013,0,.018.018,0,0,1,.01,0A.018.018,0,0,1,.045-.128Zm-.01,0a0,0,0,0,0,0,0v0a.01.01,0,0,0-.007,0v0Z" transform="translate(-0.016 0.141)" fill="url(#linear-gradient)"/>
    </g>
    <g id="Group_547" data-name="Group 547" transform="translate(0.287 117.46)">
      <path id="Path_1134" data-name="Path 1134" d="M.031-.187h.01l.013.026V-.187h.01v.039H.054L.038-.174v.026H.031Z" transform="translate(-0.031 0.188)" fill="url(#linear-gradient)"/>
    </g>
    <g id="Group_548" data-name="Group 548" transform="translate(0.329 117.47)">
      <path id="Path_1135" data-name="Path 1135" d="M.032-.134a.01.01,0,0,0-.007,0v.013h.01a.01.01,0,0,0,0-.007s0-.007,0-.007A0,0,0,0,0,.032-.134Zm0-.007a.018.018,0,0,1,.01,0,.014.014,0,0,1,.007.013.01.01,0,0,1-.007.01.013.013,0,0,1-.01,0c-.007,0-.011,0-.013,0s0,0,0-.01a.018.018,0,0,1,0-.013A.021.021,0,0,1,.032-.141Z" transform="translate(-0.016 0.141)" fill="url(#linear-gradient)"/>
    </g>
    <g id="Group_549" data-name="Group 549" transform="translate(0.366 117.47)">
      <path id="Path_1136" data-name="Path 1136" d="M.016-.124V-.141h.01v.02l0,0h0a.014.014,0,0,0,0-.01V-.141h.01v.029H.035v0l0,0H.025a.007.007,0,0,1-.007,0s0,0,0-.01Z" transform="translate(-0.016 0.141)" fill="url(#linear-gradient)"/>
    </g>
    <g id="Group_550" data-name="Group 550" transform="translate(0.404 117.47)">
      <path id="Path_1137" data-name="Path 1137" d="M.048-.128v.016H.035V-.134h0a.01.01,0,0,0-.007,0v.02H.016V-.141h.01v0h0a.01.01,0,0,1,.007,0,.018.018,0,0,1,.01,0,.018.018,0,0,1,0,.01Z" transform="translate(-0.016 0.141)" fill="url(#linear-gradient)"/>
    </g>
    <g id="Group_551" data-name="Group 551" transform="translate(0.465 117.46)">
      <path id="Path_1138" data-name="Path 1138" d="M.031-.187H.048a.018.018,0,0,1,.01,0,.018.018,0,0,1,0,.01.014.014,0,0,1,0,.01.013.013,0,0,1-.01,0H.041v.013H.031Zm.01.007v.013H.048a.01.01,0,0,0,0-.007,0,0,0,0,0,0,0,0,0,0,0,0,0,0Z" transform="translate(-0.031 0.188)" fill="url(#linear-gradient)"/>
    </g>
    <g id="Group_552" data-name="Group 552" transform="translate(0.501 117.47)">
      <path id="Path_1139" data-name="Path 1139" d="M.039-.131a0,0,0,0,0,0,0,.014.014,0,0,0-.01,0v.02H.016V-.141h.01v.007l0,0a.01.01,0,0,1,.007,0h0Z" transform="translate(-0.016 0.141)" fill="url(#linear-gradient)"/>
    </g>
    <g id="Group_553" data-name="Group 553" transform="translate(0.527 117.47)">
      <path id="Path_1140" data-name="Path 1140" d="M.032-.134a.01.01,0,0,0-.007,0v.013h.01a.01.01,0,0,0,0-.007s0-.007,0-.007A0,0,0,0,0,.032-.134Zm0-.007a.018.018,0,0,1,.01,0,.014.014,0,0,1,.007.013.01.01,0,0,1-.007.01.013.013,0,0,1-.01,0c-.007,0-.011,0-.013,0s0,0,0-.01a.018.018,0,0,1,0-.013A.021.021,0,0,1,.032-.141Z" transform="translate(-0.016 0.141)" fill="url(#linear-gradient)"/>
    </g>
    <g id="Group_554" data-name="Group 554" transform="translate(0.557 117.456)">
      <path id="Path_1141" data-name="Path 1141" d="M-.009-.19H0v.029a.018.018,0,0,1,0,.01s0,0-.007,0H-.016V-.154h0a0,0,0,0,0,0,0V-.19Zm0-.013H0v.01h-.01Z" transform="translate(0.016 0.203)" fill="url(#linear-gradient)"/>
    </g>
    <g id="Group_555" data-name="Group 555" transform="translate(0.583 117.47)">
      <path id="Path_1142" data-name="Path 1142" d="M.045-.128v0H.025v.007H.039a.01.01,0,0,0,.007,0v.007a.01.01,0,0,1-.007,0H.032c-.007,0-.011,0-.013,0s0,0,0-.01a.018.018,0,0,1,0-.013.021.021,0,0,1,.013,0,.018.018,0,0,1,.01,0A.018.018,0,0,1,.045-.128Zm-.01,0a0,0,0,0,0,0,0v0a.01.01,0,0,0-.007,0v0Z" transform="translate(-0.016 0.141)" fill="url(#linear-gradient)"/>
    </g>
    <g id="Group_556" data-name="Group 556" transform="translate(0.619 117.47)">
      <path id="Path_1143" data-name="Path 1143" d="M.042-.141v.01l-.007,0h0a.01.01,0,0,0-.007,0v.013h.01a.01.01,0,0,0,.007,0v.01H.032c-.007,0-.011,0-.013,0s0,0,0-.01a.018.018,0,0,1,0-.013.021.021,0,0,1,.013,0h.01Z" transform="translate(-0.016 0.141)" fill="url(#linear-gradient)"/>
    </g>
    <g id="Group_557" data-name="Group 557" transform="translate(0.647 117.46)">
      <path id="Path_1144" data-name="Path 1144" d="M.016-.187v.01H.023v.007H.016v.016H.023v.007H.016s-.008,0-.01,0v-.02H0V-.178H.007v-.01Z" transform="translate(0 0.188)" fill="url(#linear-gradient)"/>
    </g>
  </g>
</svg>
