<svg version="1.1" id="Layer_1" xmlns="http://www.w3.org/2000/svg" x="0" y="0" viewBox="0 0 195 40.7" style="enable-background:new 0 0 195 40.7" xml:space="preserve"><style>.st0{fill:#5410be}</style><path class="st0" d="M25.3 22.1v-1.3c0-.1 0-.2-.1-.3 0-.1 0-.2-.1-.3v-.5c0-.1 0-.2-.1-.2 0-.1 0-.2-.1-.2-.1-.5-.3-1-.5-1.4 0-.1-.1-.2-.1-.2 0-.1-.1-.2-.1-.2 0-.1-.1-.2-.1-.2-.1-.2-.2-.5-.3-.7 0-.1-.1-.1-.1-.2-2.1-3.6-5.8-5.9-9.9-6.2H12.5c-5.6.1-10.5 4-12 9.5 0 .1 0 .2-.1.3 0 .2-.1.4-.1.6v2.5c.1.2.1.4 0 .6v.1c0 .2 0 .5.1.7v.7c1.1 5.6 5.6 9.5 11 10.1h2.2c.2 0 .5 0 .7-.1h.6c.3 0 .6-.1.8-.2 2.7-.6 5.1-2.1 6.8-4.1l.2-.2c.1-.1.1-.2.2-.2 0-.1.1-.1.1-.2s.1-.1.1-.2c1.3-1.8 2.1-3.9 2.4-6.2v-1.2c-.2-.4-.2-.5-.2-.6zm-12.9 6.3c-3.2-.1-5.8-2.9-5.7-6.1.1-3.4 2.8-6 6.2-5.9 3.2.1 5.8 2.9 5.7 6.2-.1 3.3-2.9 5.9-6.2 5.8zM0 22.1s0-.1 0 0v-.7c.2.2.2.4 0 .7zm0 1.3V22.6c.2.3.2.6 0 .8zm90.1-9.3c1.8-2.6 4-4 7-4.1 3.1-.1 5.3 1.2 6.6 4l1.5-1.5c2.5-2.4 5.4-3.1 8.7-2.3 3 .7 4.8 3.1 5.2 6.4.1.6.1 1.1.1 1.7v15c0 .6-.2.8-.8.8h-5.8c-.6 0-.8-.2-.8-.8V20.2c0-.6 0-1.1-.1-1.7-.3-1.9-1.3-2.7-3.2-2.7-1.9.1-3.2 1-3.6 3-.1.7-.2 1.3-.2 2v12.5c0 .6-.2.8-.8.8h-5.8c-.7 0-.8-.2-.8-.8V20.2c0-.9-.1-1.7-.4-2.6-.3-.8-.8-1.3-1.6-1.5-2.4-.5-4.5.3-4.9 3.1-.1.6-.1 1.2-.1 1.8v12.5c0 .6-.1.8-.8.8h-6c-.5 0-.6-.1-.6-.6V11.5c0-.5.1-.6.6-.6h6.2c.5 0 .6.1.6.6-.2.6-.2 1.5-.2 2.6zm-39.6.6c-3-3.9-9.4-6.9-16.4-3.3.1-.7-.3-.7-.8-.7h-4.8c-.7 0-.8.2-.8.8v29.3H34v-7.4c2 1.1 3.9 1.7 6 1.7s4.1-.4 5.9-1.3c1.9-.9 3.5-2.3 4.7-4 3.4-4.5 3.3-10.7-.1-15.1zm-10 13.7c-3.3 0-6-2.6-6-5.9 0-3.3 2.7-6 5.9-6 3.3 0 6 2.7 6 5.9.1 3.2-2.6 5.9-5.9 6zM178.9 20c-1.1-6.7-8-11.4-14.6-10.1-6.6 1.3-11 7.3-10.3 13.7.6 6 5.7 11 11.8 11.3 5.3.2 10-2.5 12.2-7.1.3-.6.2-.7-.4-.7h-5.3c-.3 0-.6 0-.9.3-1.3 1.7-3.1 2.3-5.2 2.2-2.6-.1-4.7-1.8-5.2-4-.1-.6-.1-.8.6-.7H178.3c.6 0 .8-.2.9-.8-.1-1.3-.1-2.7-.3-4.1zm-8.3.4h-9.4c-.6 0-.6-.2-.5-.7.3-1.4 1.1-2.4 2.3-3.2 2.6-1.6 6-1.1 7.9 1 .3.3.5.6.7.9 1 1.7.8 2-1 2zm-26.7-4.2h-9.7c-.6 0-.8-.2-.8-.8 0-1.3.1-2.6 0-3.8 0-.7.2-.9.9-.9h18.1c.5 0 .6.1.6.6 0 1-.1 2 0 2.9.1 1.3-.4 2.2-1.2 3.1-3.2 3.5-6.4 7-9.6 10.6-.2.2-.3.4-.5.6.2.2.5.1.7.1h10.2c.7 0 .9.2.8.9-.1 1.3 0 2.7 0 4 0 .5-.1.7-.7.7h-19.6c-.6 0-.7-.2-.7-.8v-3.9c0-.5.1-.8.5-1.2 3.5-3.8 6.9-7.6 10.4-11.4.2-.2.3-.4.6-.7zm-87.1 6.2v-5.6c0-.5-.2-.7-.7-.7h-2c-.4 0-.6-.1-.5-.5v-4.5c0-.5.2-.6.6-.5h2c.5 0 .7-.1.7-.7V4.7c0-.5.2-.7.7-.7h5.8c.6 0 .8.1.8.8-.1 1.7 0 3.3 0 5 0 .6.1.8.7.8.9-.1 1.8 0 2.7 0 .5 0 .6.1.6.6v4.4c0 .4-.1.5-.5.5h-2.9c-.4 0-.6.1-.6.5v9.5c0 1.6.6 2.2 2.2 2.2 1.8.1 1.8.1 1.8 1.9v3.1c0 .3 0 .5-.4.6-2.2.4-4.5.6-6.7.1s-3.4-2-3.9-4.1c-.5-1.9-.3-3.8-.4-5.7v-1.8zm15.2 0v-11c0-.6.2-.8.8-.8h5.9c.5 0 .7.2.7.7v22c0 .6-.2.7-.7.7h-5.9c-.6 0-.7-.1-.7-.7-.1-3.6-.1-7.2-.1-10.9zm57.5 0v10.9c0 .7-.2.8-.9.8h-5.8c-.5 0-.7-.2-.7-.7v-22c0-.6.2-.7.7-.7h5.9c.6 0 .7.2.7.7.1 3.7.1 7.3.1 11zm62.7-7.8c-1 1-1.8 1.9-2.7 2.7l-3.6 3.6c-.3.3-.5.4-.8 0-.5-.5-1.3-1-1.4-1.6-.1-.6.9-1 1.4-1.5l4.9-4.9c-.2-.3-.5-.1-.7-.1h-5.2c-.5 0-.6-.1-.6-.6 0-.7-.2-1.6.1-2 .4-.5 1.3-.1 2-.2h8.6c.6 0 .7.1.7.7v9.8c0 .6-.2.7-.7.7-2 0-2 0-2-2v-4.6zM130 4.2c0 2.3-1.9 4.2-4.2 4.1-2.3 0-4.1-1.9-4.1-4.1 0-2.3 1.9-4.2 4.2-4.2 2.3 0 4.1 1.9 4.1 4.2zm-50.2 0c0 2.3-1.9 4.1-4.2 4.1-2.3 0-4.1-1.9-4.1-4.1 0-2.3 1.9-4.2 4.1-4.2 2.3 0 4.2 1.9 4.2 4.2z"/></svg>