<svg xmlns="http://www.w3.org/2000/svg" width="22.12" height="188.946" viewBox="0 0 22.12 188.946">
  <g id="sosmedia" transform="translate(-0.942 -2)">
    <g id="instagram">
      <path id="Vector" d="M15.34,3.46a1.2,1.2,0,1,0,.849.351,1.2,1.2,0,0,0-.849-.351Zm4.6,2.42a7.59,7.59,0,0,0-.46-2.43,4.94,4.94,0,0,0-1.16-1.77A4.7,4.7,0,0,0,16.55.53,7.3,7.3,0,0,0,14.12.06C13.06,0,12.72,0,10,0S6.94,0,5.88.06A7.3,7.3,0,0,0,3.45.53,4.78,4.78,0,0,0,1.68,1.68,4.7,4.7,0,0,0,.53,3.45,7.3,7.3,0,0,0,.06,5.88C0,6.94,0,7.28,0,10s0,3.06.06,4.12a7.3,7.3,0,0,0,.47,2.43,4.7,4.7,0,0,0,1.15,1.77,4.78,4.78,0,0,0,1.77,1.15,7.3,7.3,0,0,0,2.43.47C6.94,20,7.28,20,10,20s3.06,0,4.12-.06a7.3,7.3,0,0,0,2.43-.47,4.7,4.7,0,0,0,1.77-1.15,4.85,4.85,0,0,0,1.16-1.77,7.59,7.59,0,0,0,.46-2.43c0-1.06.06-1.4.06-4.12s0-3.06-.06-4.12ZM18.14,14a5.61,5.61,0,0,1-.34,1.86,3.06,3.06,0,0,1-.75,1.15,3.19,3.19,0,0,1-1.15.75,5.61,5.61,0,0,1-1.86.34c-1,.05-1.37.06-4,.06s-3,0-4-.06a5.73,5.73,0,0,1-1.94-.3A3.27,3.27,0,0,1,3,17.05a3,3,0,0,1-.74-1.15,5.54,5.54,0,0,1-.4-1.9c0-1-.06-1.37-.06-4s0-3,.06-4a5.54,5.54,0,0,1,.35-1.9A3,3,0,0,1,3,3a3.14,3.14,0,0,1,1.1-.8A5.73,5.73,0,0,1,6,1.86c1,0,1.37-.06,4-.06s3,0,4,.06a5.61,5.61,0,0,1,1.86.34,3.06,3.06,0,0,1,1.19.8,3.06,3.06,0,0,1,.75,1.1A5.61,5.61,0,0,1,18.14,6c.05,1,.06,1.37.06,4S18.19,13,18.14,14ZM10,4.87a5.12,5.12,0,1,0,1.968.385A5.13,5.13,0,0,0,10,4.87Zm0,8.46a3.33,3.33,0,1,1,1.274-.253A3.33,3.33,0,0,1,10,13.33Z" transform="translate(2 2)" fill="#fafafa"/>
    </g>
    <g id="facebook" transform="translate(0 56)">
      <path id="Vector-2" data-name="Vector" d="M18.9,0H1.1A1.1,1.1,0,0,0,0,1.1V18.9A1.1,1.1,0,0,0,1.1,20h9.58V12.25H8.08v-3h2.6V7a3.64,3.64,0,0,1,3.88-4,20.26,20.26,0,0,1,2.33.12v2.7H15.3c-1.26,0-1.5.6-1.5,1.47V9.22h3l-.39,3H13.8V20h5.1A1.1,1.1,0,0,0,20,18.9V1.1A1.1,1.1,0,0,0,18.9,0Z" transform="translate(2 2)" fill="#fafafa"/>
    </g>
    <g id="Twitter" transform="translate(0 112)">
      <path id="Vector-3" data-name="Vector" d="M22.12,2.133a9.175,9.175,0,0,1-2.606.717,4.554,4.554,0,0,0,2-2.513,9.018,9.018,0,0,1-2.883,1.1,4.537,4.537,0,0,0-7.852,3.1,4.443,4.443,0,0,0,.117,1.036A12.861,12.861,0,0,1,1.538.83,4.547,4.547,0,0,0,2.948,6.9,4.433,4.433,0,0,1,.886,6.328v.056a4.542,4.542,0,0,0,3.642,4.453,4.568,4.568,0,0,1-1.2.159,4.281,4.281,0,0,1-.853-.084,4.545,4.545,0,0,0,4.242,3.155,9.1,9.1,0,0,1-5.639,1.945A9.2,9.2,0,0,1,0,15.947,12.685,12.685,0,0,0,6.947,18,12.836,12.836,0,0,0,19.87,5.072c0-.2,0-.394-.014-.586A9.238,9.238,0,0,0,22.12,2.133Z" transform="translate(0.942 3)" fill="#fafafa"/>
    </g>
    <g id="Linkedin" transform="translate(0 168)">
      <path id="Vector-4" data-name="Vector" d="M20,0H1.6A1.572,1.572,0,0,0,0,1.548v18.5A1.573,1.573,0,0,0,1.6,21.6H20a1.572,1.572,0,0,0,1.6-1.548V1.548A1.571,1.571,0,0,0,20,0ZM6.548,18.081H3.285V8.328H6.548v9.752ZM4.917,7H4.9a1.69,1.69,0,1,1,.042-3.37A1.691,1.691,0,1,1,4.917,7Zm13.4,11.084H15.05V12.863c0-1.311-.473-2.206-1.653-2.206a1.782,1.782,0,0,0-1.674,1.186,2.177,2.177,0,0,0-.109.79V18.08H8.353s.043-8.838,0-9.752h3.262V9.711A3.24,3.24,0,0,1,14.555,8.1c2.147,0,3.757,1.393,3.757,4.39v5.592ZM11.594,9.742l.021-.031v.031Z" transform="translate(1.086 1.346)" fill="#fafafa"/>
    </g>
  </g>
</svg>
