<svg width="655" height="191" viewBox="0 0 655 191" fill="none" xmlns="http://www.w3.org/2000/svg">
<path d="M47.6654 0H0V47.75H47.6654V0Z" fill="#FFFDFD"/>
<path d="M95.3309 47.75H47.6655V95.5H95.3309V47.75Z" fill="#FFFDFD"/>
<path d="M95.3309 95.5H47.6655V143.25H95.3309V95.5Z" fill="#FFFDFD"/>
<path d="M142.996 0H95.3309V47.75H142.996V0Z" fill="#FFFDFD"/>
<path d="M190.662 47.75H142.996V95.5H190.662V47.75Z" fill="#FFFDFD"/>
<path d="M142.996 143.25H95.3309V191H142.996V143.25Z" fill="#FFFDFD"/>
<path d="M190.662 95.5H142.996V143.25H190.662V95.5Z" fill="#FFFDFD"/>
<path d="M337.977 106.316V113.927C337.977 137.562 322.062 155.187 297.029 155.187C271.997 155.187 255.842 137.562 255.842 113.927V81.9601H238.327V59.4471H255.842V35.6522H279.755V59.4471H313.984V81.9601H279.835V115.209C279.835 123.701 285.113 132.434 297.029 132.434C308.786 132.434 314.064 123.701 314.064 115.209V106.316H337.977V106.316Z" fill="#FFFDFD"/>
<path d="M374.606 115.609C377.725 127.066 386.762 134.117 397.959 134.117C405.956 134.117 413.714 130.671 417.712 123.221H443.305C437.866 142.289 421.391 155.187 398.198 155.187C371.886 155.187 350.373 133.395 350.373 106.316C350.373 79.2361 371.966 57.1237 398.198 57.1237C425.79 57.1237 448.583 78.515 445.144 115.609H374.606ZM421.391 95.9806C418.512 85.0846 409.395 78.1945 398.038 78.1945C387.162 78.1945 378.444 85.0846 375.006 95.9806H421.391Z" fill="#FFFDFD"/>
<path d="M545.194 155.187H521.201L521.281 98.3041C521.281 92.8561 519.681 79.7969 503.846 79.7969C493.129 79.7969 485.692 87.8087 485.692 98.3041L485.612 155.187H461.779V59.4471H484.652V68.5004C490.65 61.45 498.808 57.0436 508.725 57.0436C530.638 57.0436 545.194 73.5478 545.194 98.3041V155.187Z" fill="#FFFDFD"/>
<path d="M627.888 155.187L607.175 121.218L586.221 155.187H559.109L593.179 104.713L562.548 59.5272H589.74L607.175 88.049L624.369 59.5272H651.561L620.93 104.713L655 155.187H627.888Z" fill="#FFFDFD"/>
</svg>
