<svg width="223" height="46" viewBox="0 0 223 46" fill="none" xmlns="http://www.w3.org/2000/svg">
<path d="M0.0524681 7.75807C0.19148 7.4907 1.99864 5.694 2.88617 7.05222C1.92378 16.0892 42.9537 7.44792 61.4637 7.73668C66.3826 7.41584 76.9688 6.94527 74.6805 10.2713C66.8531 11.3943 63.7199 9.79006 48.4286 10.913C30.3357 11.1804 -1.46597 19.1158 0.0524681 7.75807Z" fill="#00A0DA"/>
<path d="M0.0524681 39.4037C0.19148 39.1363 1.99864 37.3396 2.88617 38.6978C1.92378 47.7348 42.9537 39.0935 61.4637 39.3823C66.3826 39.0614 76.9688 38.5909 74.6805 41.9169C66.8531 43.0399 63.7199 41.4357 48.4286 42.5586C30.3357 42.826 -1.46597 50.7507 0.0524681 39.4037Z" fill="#00A0DA"/>
<path d="M69.5905 23.6397C67.6337 23.6932 62.3833 30.2169 60.8969 31.8746C58.8117 34.2061 54.4382 34.1847 53.4651 31.2222C52.0109 26.7732 52.0964 22.5488 51.2196 21.7147C50.3427 20.8805 48.9954 20.1211 45.4452 24.5487C41.8951 28.9763 40.2055 32.2596 38.7833 31.7997C37.3504 31.3399 36.11 30.5057 36.3881 26.2278C36.6661 21.9392 36.4629 18.6025 34.228 20.7949C31.9504 23.0087 16.6911 37.2968 13.5153 37.3931C10.3394 37.4893 6.37218 37.7781 7.98685 28.1956C9.60153 18.6132 17.2258 1.35195 17.2258 1.35195C17.2258 1.35195 17.8674 -0.166697 18.926 0.0151125C19.9847 0.196922 22.0164 1.67279 20.1237 3.28769C18.231 4.90259 14.0392 15.501 13.7184 16.8379C13.3976 18.1747 8.61775 31.5859 11.152 33.3398C13.6863 35.0937 16.6698 31.8639 22.0591 27.1583C27.4485 22.4526 32.453 17.4154 34.2708 16.9769C36.0673 16.5384 39.8313 16.9127 39.9382 22.4633C39.1576 28.5486 39.7992 27.5219 39.7992 27.5219C39.7992 27.5219 46.0654 18.7736 48.7387 18.3137C51.412 17.8539 54.8553 19.0624 55.1547 25.8749C55.4006 31.4896 57.1222 31.1474 58.6941 29.8212C60.266 28.4844 65.5806 22.2922 67.0883 21.6505C67.7727 21.3617 68.6388 21.073 69.6012 21.073C72.05 22.0997 69.5905 23.6397 69.5905 23.6397Z" fill="#00A0DA"/>
<path d="M101.608 15.2261V18.4901H97V32.1941H92.872V18.4901H88.312V15.2261H101.608ZM107.442 21.3221C107.954 20.5061 108.61 19.8581 109.41 19.3781C110.226 18.8981 111.106 18.6581 112.05 18.6581V23.0501H110.874C109.786 23.0501 108.938 23.2821 108.33 23.7461C107.738 24.2101 107.442 24.9941 107.442 26.0981V32.1941H103.338V18.8021H107.442V21.3221ZM113.384 15.0341C113.384 14.4101 113.608 13.8981 114.056 13.4981C114.504 13.0821 115.096 12.8741 115.832 12.8741C116.568 12.8741 117.16 13.0821 117.608 13.4981C118.056 13.8981 118.28 14.4101 118.28 15.0341C118.28 15.6421 118.056 16.1541 117.608 16.5701C117.16 16.9701 116.568 17.1701 115.832 17.1701C115.096 17.1701 114.504 16.9701 114.056 16.5701C113.608 16.1541 113.384 15.6421 113.384 15.0341ZM117.872 18.8021V32.1941H113.768V18.8021H117.872ZM129.057 18.6341C130.161 18.6341 131.145 18.9141 132.009 19.4741C132.889 20.0181 133.577 20.8101 134.073 21.8501C134.585 22.8741 134.841 24.0901 134.841 25.4981C134.841 26.8901 134.585 28.1061 134.073 29.1461C133.577 30.1861 132.889 30.9861 132.009 31.5461C131.145 32.0901 130.161 32.3621 129.057 32.3621C128.033 32.3621 127.153 32.1301 126.417 31.6661C125.681 31.2021 125.145 30.5701 124.809 29.7701V38.5781H120.705V18.8021H124.809V21.2261C125.145 20.4261 125.681 19.7941 126.417 19.3301C127.153 18.8661 128.033 18.6341 129.057 18.6341ZM127.737 22.2341C126.873 22.2341 126.161 22.5301 125.601 23.1221C125.057 23.6981 124.785 24.4901 124.785 25.4981C124.785 26.4901 125.057 27.2821 125.601 27.8741C126.161 28.4661 126.873 28.7621 127.737 28.7621C128.617 28.7621 129.321 28.4741 129.849 27.8981C130.393 27.3221 130.665 26.5221 130.665 25.4981C130.665 24.4741 130.393 23.6741 129.849 23.0981C129.321 22.5221 128.617 22.2341 127.737 22.2341ZM154.323 18.6581C155.971 18.6581 157.267 19.1701 158.211 20.1941C159.155 21.2021 159.627 22.6101 159.627 24.4181V32.1941H155.547V24.8981C155.547 24.0501 155.315 23.3941 154.851 22.9301C154.403 22.4501 153.787 22.2101 153.003 22.2101C152.187 22.2101 151.539 22.4661 151.059 22.9781C150.595 23.4741 150.363 24.1781 150.363 25.0901V32.1941H146.259V24.8981C146.259 24.0501 146.035 23.3941 145.587 22.9301C145.139 22.4501 144.523 22.2101 143.739 22.2101C142.923 22.2101 142.275 22.4581 141.795 22.9541C141.315 23.4501 141.075 24.1621 141.075 25.0901V32.1941H136.971V18.8021H141.075V21.0821C141.427 20.3301 141.963 19.7381 142.683 19.3061C143.419 18.8741 144.275 18.6581 145.251 18.6581C146.275 18.6581 147.179 18.8981 147.963 19.3781C148.747 19.8421 149.339 20.5141 149.739 21.3941C150.203 20.5621 150.835 19.8981 151.635 19.4021C152.451 18.9061 153.347 18.6581 154.323 18.6581ZM167.442 18.6341C168.466 18.6341 169.346 18.8661 170.082 19.3301C170.818 19.7941 171.362 20.4261 171.714 21.2261V18.8021H175.794V32.1941H171.714V29.7701C171.362 30.5701 170.818 31.2021 170.082 31.6661C169.346 32.1301 168.466 32.3621 167.442 32.3621C166.338 32.3621 165.346 32.0901 164.465 31.5461C163.602 30.9861 162.914 30.1861 162.402 29.1461C161.906 28.1061 161.658 26.8901 161.658 25.4981C161.658 24.0901 161.906 22.8741 162.402 21.8501C162.914 20.8101 163.602 20.0181 164.465 19.4741C165.346 18.9141 166.338 18.6341 167.442 18.6341ZM168.762 22.2341C167.882 22.2341 167.17 22.5221 166.626 23.0981C166.098 23.6741 165.834 24.4741 165.834 25.4981C165.834 26.5221 166.098 27.3221 166.626 27.8981C167.17 28.4741 167.882 28.7621 168.762 28.7621C169.626 28.7621 170.33 28.4661 170.874 27.8741C171.434 27.2821 171.714 26.4901 171.714 25.4981C171.714 24.4901 171.434 23.6981 170.874 23.1221C170.33 22.5301 169.626 22.2341 168.762 22.2341ZM183.707 18.6341C184.731 18.6341 185.611 18.8661 186.347 19.3301C187.083 19.7941 187.627 20.4261 187.979 21.2261V18.8021H192.059V32.1221C192.059 33.3701 191.819 34.4901 191.339 35.4821C190.859 36.4901 190.123 37.2901 189.131 37.8821C188.139 38.4741 186.907 38.7701 185.435 38.7701C183.419 38.7701 181.803 38.2901 180.587 37.3301C179.387 36.3861 178.667 35.0981 178.427 33.4661H182.483C182.611 34.0101 182.899 34.4341 183.347 34.7381C183.811 35.0421 184.411 35.1941 185.147 35.1941C185.995 35.1941 186.675 34.9461 187.187 34.4501C187.715 33.9701 187.979 33.1941 187.979 32.1221V29.7701C187.627 30.5701 187.083 31.2021 186.347 31.6661C185.611 32.1301 184.731 32.3621 183.707 32.3621C182.603 32.3621 181.611 32.0901 180.731 31.5461C179.867 30.9861 179.179 30.1861 178.667 29.1461C178.171 28.1061 177.923 26.8901 177.923 25.4981C177.923 24.0901 178.171 22.8741 178.667 21.8501C179.179 20.8101 179.867 20.0181 180.731 19.4741C181.611 18.9141 182.603 18.6341 183.707 18.6341ZM185.027 22.2341C184.147 22.2341 183.435 22.5221 182.891 23.0981C182.363 23.6741 182.099 24.4741 182.099 25.4981C182.099 26.5221 182.363 27.3221 182.891 27.8981C183.435 28.4741 184.147 28.7621 185.027 28.7621C185.891 28.7621 186.595 28.4661 187.139 27.8741C187.699 27.2821 187.979 26.4901 187.979 25.4981C187.979 24.4901 187.699 23.6981 187.139 23.1221C186.595 22.5301 185.891 22.2341 185.027 22.2341ZM208.205 18.8021V32.1941H204.077V29.7701C203.693 30.5541 203.117 31.1781 202.349 31.6421C201.597 32.1061 200.717 32.3381 199.709 32.3381C198.173 32.3381 196.949 31.8261 196.037 30.8021C195.141 29.7781 194.693 28.3701 194.693 26.5781V18.8021H198.773V26.0741C198.773 26.9861 199.005 27.6981 199.469 28.2101C199.949 28.7061 200.589 28.9541 201.389 28.9541C202.221 28.9541 202.877 28.6901 203.357 28.1621C203.837 27.6341 204.077 26.8821 204.077 25.9061V18.8021H208.205ZM215.905 18.6341C217.601 18.6341 218.953 19.0581 219.961 19.9061C220.985 20.7541 221.625 21.8741 221.881 23.2661H218.041C217.929 22.7221 217.673 22.2981 217.273 21.9941C216.889 21.6741 216.401 21.5141 215.809 21.5141C215.345 21.5141 214.993 21.6181 214.753 21.8261C214.513 22.0181 214.393 22.2981 214.393 22.6661C214.393 23.0821 214.609 23.3941 215.041 23.6021C215.489 23.8101 216.185 24.0181 217.129 24.2261C218.153 24.4661 218.993 24.7141 219.649 24.9701C220.305 25.2101 220.873 25.6101 221.353 26.1701C221.833 26.7301 222.073 27.4821 222.073 28.4261C222.073 29.1941 221.865 29.8741 221.449 30.4661C221.033 31.0581 220.433 31.5221 219.649 31.8581C218.865 32.1941 217.937 32.3621 216.865 32.3621C215.057 32.3621 213.609 31.9621 212.521 31.1621C211.433 30.3621 210.769 29.2181 210.529 27.7301H214.489C214.553 28.3061 214.793 28.7461 215.209 29.0501C215.641 29.3541 216.193 29.5061 216.865 29.5061C217.329 29.5061 217.681 29.4021 217.921 29.1941C218.161 28.9701 218.281 28.6821 218.281 28.3301C218.281 27.8661 218.057 27.5381 217.609 27.3461C217.177 27.1381 216.465 26.9221 215.473 26.6981C214.481 26.4901 213.665 26.2661 213.025 26.0261C212.385 25.7861 211.833 25.4021 211.369 24.8741C210.905 24.3301 210.673 23.5941 210.673 22.6661C210.673 21.4661 211.129 20.4981 212.041 19.7621C212.953 19.0101 214.241 18.6341 215.905 18.6341Z" fill="#00A0DA"/>
</svg>
